<mxfile host="app.diagrams.net" modified="2024-03-16T19:19:33.580Z" agent="Mozilla/5.0 (Windows NT 10.0; Win64; x64) AppleWebKit/537.36 (KHTML, like Gecko) Chrome/122.0.0.0 Safari/537.36" etag="qXw9Q84sD_40PLktRkO0" version="24.0.7" type="device">
  <diagram name="Page-1" id="haEWcTueiU3ZkYEHr17n">
    <mxGraphModel dx="1772" dy="786" grid="0" gridSize="10" guides="1" tooltips="1" connect="1" arrows="1" fold="1" page="0" pageScale="1" pageWidth="850" pageHeight="1100" math="0" shadow="0">
      <root>
        <mxCell id="0" />
        <mxCell id="1" parent="0" />
        <mxCell id="Oyaj-UeupnfmVhnfqXTl-9" style="edgeStyle=orthogonalEdgeStyle;rounded=0;orthogonalLoop=1;jettySize=auto;html=1;entryX=0;entryY=0.5;entryDx=0;entryDy=0;" edge="1" parent="1" source="Oyaj-UeupnfmVhnfqXTl-1" target="Oyaj-UeupnfmVhnfqXTl-2">
          <mxGeometry relative="1" as="geometry" />
        </mxCell>
        <mxCell id="Oyaj-UeupnfmVhnfqXTl-1" value="data processing" style="rounded=0;whiteSpace=wrap;html=1;" vertex="1" parent="1">
          <mxGeometry x="-118" y="222" width="120" height="60" as="geometry" />
        </mxCell>
        <mxCell id="Oyaj-UeupnfmVhnfqXTl-10" style="edgeStyle=orthogonalEdgeStyle;rounded=0;orthogonalLoop=1;jettySize=auto;html=1;entryX=0;entryY=0.5;entryDx=0;entryDy=0;" edge="1" parent="1" source="Oyaj-UeupnfmVhnfqXTl-2" target="Oyaj-UeupnfmVhnfqXTl-3">
          <mxGeometry relative="1" as="geometry" />
        </mxCell>
        <mxCell id="Oyaj-UeupnfmVhnfqXTl-2" value="feature selection&lt;div&gt;filter&lt;/div&gt;" style="rounded=0;whiteSpace=wrap;html=1;" vertex="1" parent="1">
          <mxGeometry x="40" y="222" width="120" height="60" as="geometry" />
        </mxCell>
        <mxCell id="Oyaj-UeupnfmVhnfqXTl-5" style="edgeStyle=orthogonalEdgeStyle;rounded=0;orthogonalLoop=1;jettySize=auto;html=1;" edge="1" parent="1" source="Oyaj-UeupnfmVhnfqXTl-3" target="Oyaj-UeupnfmVhnfqXTl-4">
          <mxGeometry relative="1" as="geometry" />
        </mxCell>
        <mxCell id="Oyaj-UeupnfmVhnfqXTl-3" value="training" style="rounded=0;whiteSpace=wrap;html=1;" vertex="1" parent="1">
          <mxGeometry x="198" y="222" width="120" height="60" as="geometry" />
        </mxCell>
        <mxCell id="Oyaj-UeupnfmVhnfqXTl-6" style="edgeStyle=orthogonalEdgeStyle;rounded=0;orthogonalLoop=1;jettySize=auto;html=1;entryX=0.75;entryY=1;entryDx=0;entryDy=0;" edge="1" parent="1" source="Oyaj-UeupnfmVhnfqXTl-4" target="Oyaj-UeupnfmVhnfqXTl-3">
          <mxGeometry relative="1" as="geometry">
            <Array as="points">
              <mxPoint x="288" y="334" />
              <mxPoint x="288" y="334" />
            </Array>
          </mxGeometry>
        </mxCell>
        <mxCell id="Oyaj-UeupnfmVhnfqXTl-8" style="edgeStyle=orthogonalEdgeStyle;rounded=0;orthogonalLoop=1;jettySize=auto;html=1;" edge="1" parent="1" source="Oyaj-UeupnfmVhnfqXTl-4" target="Oyaj-UeupnfmVhnfqXTl-7">
          <mxGeometry relative="1" as="geometry" />
        </mxCell>
        <mxCell id="Oyaj-UeupnfmVhnfqXTl-4" value="evaluation (5 folds validation)" style="rounded=0;whiteSpace=wrap;html=1;" vertex="1" parent="1">
          <mxGeometry x="198" y="349" width="120" height="60" as="geometry" />
        </mxCell>
        <mxCell id="Oyaj-UeupnfmVhnfqXTl-13" style="edgeStyle=orthogonalEdgeStyle;rounded=0;orthogonalLoop=1;jettySize=auto;html=1;entryX=0.5;entryY=1;entryDx=0;entryDy=0;" edge="1" parent="1" source="Oyaj-UeupnfmVhnfqXTl-7" target="Oyaj-UeupnfmVhnfqXTl-11">
          <mxGeometry relative="1" as="geometry" />
        </mxCell>
        <mxCell id="Oyaj-UeupnfmVhnfqXTl-7" value="optimal hyperparmeter" style="rounded=0;whiteSpace=wrap;html=1;" vertex="1" parent="1">
          <mxGeometry x="351" y="349" width="120" height="60" as="geometry" />
        </mxCell>
        <mxCell id="Oyaj-UeupnfmVhnfqXTl-14" style="edgeStyle=orthogonalEdgeStyle;rounded=0;orthogonalLoop=1;jettySize=auto;html=1;entryX=0;entryY=0.5;entryDx=0;entryDy=0;" edge="1" parent="1" source="Oyaj-UeupnfmVhnfqXTl-11" target="Oyaj-UeupnfmVhnfqXTl-12">
          <mxGeometry relative="1" as="geometry" />
        </mxCell>
        <mxCell id="Oyaj-UeupnfmVhnfqXTl-11" value="model calibration" style="rounded=0;whiteSpace=wrap;html=1;" vertex="1" parent="1">
          <mxGeometry x="351" y="220" width="120" height="60" as="geometry" />
        </mxCell>
        <mxCell id="Oyaj-UeupnfmVhnfqXTl-12" value="global interpretation&lt;div&gt;+ decision strategy&lt;/div&gt;" style="rounded=0;whiteSpace=wrap;html=1;" vertex="1" parent="1">
          <mxGeometry x="517" y="220" width="120" height="60" as="geometry" />
        </mxCell>
        <mxCell id="Oyaj-UeupnfmVhnfqXTl-15" value="&lt;b&gt;Model development strategy&lt;/b&gt;" style="text;html=1;align=center;verticalAlign=middle;resizable=0;points=[];autosize=1;strokeColor=none;fillColor=none;" vertex="1" parent="1">
          <mxGeometry x="-122" y="184" width="180" height="26" as="geometry" />
        </mxCell>
        <mxCell id="Oyaj-UeupnfmVhnfqXTl-20" value="" style="group" vertex="1" connectable="0" parent="1">
          <mxGeometry x="-63" y="539" width="778" height="378.6700000000001" as="geometry" />
        </mxCell>
        <mxCell id="Oyaj-UeupnfmVhnfqXTl-16" value="" style="shape=image;verticalLabelPosition=bottom;labelBackgroundColor=default;verticalAlign=top;aspect=fixed;imageAspect=0;image=data:image/png,iVBORw0KGgoAAAANSUhEUgAAA4gAAAG4CAYAAAAHVclKAAAgAElEQVR4AezdCXgVVZ7///7N85ulZ3qbffnPv9vp6eld26271e7WUbS1bUVbEMW9QUFtZIewGkBBUBTBllWUTUE22cMSCAoIQkLYw07IAknIThZICJ///1t4ryd7EHJv3dx3PU+Zc+vWrTr1Osfn8eOpOvUVsSCAAAIIIIAAAggggAACCCAg6SsoIIAAAggggAACCCCAAAIIIGACBET6AQIIIIAAAggggAACCCCAgCdAQKQjIIAAAggggAACCCCAAAIIeAIERDoCAggggAACCCCAAAIIIICAJ0BApCMggAACCCCAAAIIIIAAAgh4AgREOgICCCCAAAIIIIAAAggggIAnQECkIyCAAAIIIIAAAggggAACCHgCBEQ6AgIIIIAAAggggAACCCCAgCdAQKQjIIAAAggggAACCCCAAAIIeALNHhCPHz+uzp0765ZbblGXLl20fft2VVVVBflLS0v1xBNP6Nprr/XWq6++Wj/+8Y/VoUMHnThxIrgfBQQQQAABBBBAAAEEEEAAgeYVaNaAaEGwd+/eGjhwoHbs2KEhQ4Z45YyMjOBVnT9/XoWFhcrNzfXWxMREPf/883r//fdVXl4e3I8CAggggAACCCCAAAIIIIBA8wo0a0A8deqUbr31Vh09etS7CguJvXr10pYtW2TBsOZSVlam8ePHa/DgwUpPT6/5NZ8RQAABBBBAAAEEEEAAAQSaUaBZA+KmTZt011136dy5c94lnDx5Uj179lRcXFy120ztSwuMFiB79OihZcuWBX/T2LXb7+z4NlrJigF9gD5AH6AP0AfoA/QB+gB9gD4QjX3AMlFdg3CN5ama3zdrQFy6dKkefPDB4DkLCgrUt29fzZ8/X5WVlcHtVrDbSWfOnKnY2FhlZmZW+66hD3Ycu2XVRhztLysG9AH6AH2APkAfoA/QB+gD9AH6QDT1ActClqECA3MN5afGvmvWgLhkyRK1bds2WIf8/HwvIC5YsKBWQLTRxaFDh2rWrFm1vgseoI6CBUSb+CaAYjCsGNAH6AP0AfoAfYA+QB+gD9AH6APR0gcsC+3cufOiclQd0crb1KwBseYtpjYrqd1iunLlylq3mO7Zs0fdunWTTVJzMYulZAuIFRUV3GLKbbb0AfoAfYA+QB+gD9AH6AP0AfpA1PUBy0IWEH0/gmgjhu4kNRbk6pqkxu4RTkhI8F6DYRPbXMxiCMnJyZcF42LOy74IIIAAAggggAACCCCAgB8ELBPt2rXrsmSiZh1BtIckLRDaaiOD9roLm6HUbie15xFt1lJbzpw5oxkzZmjAgAFe2r8YZALixWixLwIIIIAAAggggAACCLQ0gYgJiAZvYbBr167eSKJNUJOSkuK1R/v27TV37lyvbEFx6tSpGj169EW3FQHxosn4AQIIIIAAAggggAACCLQggYgKiM3tTkBsbmGOjwACCCCAAAIIIIAAAn4WICA6rUNAdDAoIoAAAggggAACCCCAQNQJEBCdJr+YgGjPRNr+rP40uBwv9nS6BkUEEEAAAQQQQAABBKJCgIDoNHNTA6JNhJOXl+c9E2mv22D1l4E9q2oz2JaWloqg6HRwiggggAACCCCAAAIINCJAQHSAmhIQy8vLdfz4caWmpnoBMScnR6z+MsjKylJaWprXRqdPnyYkOn2cIgIIIIAAAggggAACDQkQEB2dpgRECx9Hjx71RqfsJZL2G1Z/GVRWVsqCfEZGhhcU7d2YLAgggAACCCCAAAIIINC4AAHRMWosINr3R44cUW5uLqNSjpsfi3ZraXFxsQ4ePOi9G9OPdaROCCCAAAIIIIAAAgj4TYCA6LRIYwHx7NmzOnz4sOy2RRb/C9izogcOHPBGe/1fW2qIAAIIIIAAAggggED4BQiIThs0NSCWlJQ4v6LoVwEL9DaCSHv5tYWoFwIIIIAAAggggIDfBAiITosQEB2MFlAkILaARuQSEEAAAQQQQAABBEIqQEB0uAmIDsZFFgsKCrRjxw5vtM4vr5YgIF5kI7I7AggggAACCCCAQNQLEBCdLkBAdDAuomiTwbzzzju64YYbtHv3bt9M4ENAvIhGZFcEEEAAAQQQQACBZhUoPVup7cfztSApXfMS07x1xa4TzXrOL3NwAqKjFs6AaKNueSVntPHQKS1MStei7RlKPp6vM5XnnBr6q2h1zs7O1tSpU9WqVSt9//vfJyD6q4moDQIIIIAAAggggIAPBMrOntOSHZm6960N+m6/ZfpOzIX1qiErNW3TMR/U8IsqEBC/sPDeZ5icnOz9dTYHizYiZbOYXu5JT85WVmltSpb+9H6S7hzzsX4xfI1uGBGv+/68UX3n71DKiaJgHfxSsI6zb98+9erVS/fff7/uvPNO/fSnPyUg+qWBqAcCCCCAAAIIIICAbwQyCsr03KykYDAMBET7e1XsSt/U0ypCQHSaIxwjiOeqzithf7bueGN9tf+bEOg0/91/uR6e9Kn2nyx2atq8RRsVfPXVVzVz5kzFxcVpwIAB6tu3rzdSmJeX553cXiGxYsUKPfnkk5o/f76GDx+ua6+9loDYvE3D0RFAAAEEEEAAAQQiUCC7qFy95+6oMyDeMHyNr66IgOg0RzgCot1WetvohDo7SyAk2jD0c7MSVVFZ5dS2+Yqpqal64IEH9L//+7965JFH9OKLL3oB8dZbb9Uf//hH772CZmVhMT093XsR/aRJk3TdddcREJuvWTgyAggggAACCCCAQIQKVFZVaVd6oXfH4PcGLA/+t/8vh6/RoWx/vWOdgOh0snAExDlbjwc7SCAQ1vX3VyPXatPhU05tm69oAbF169a64447vFHC8vJy2Tp37lxdddVVmjJlijcRjT2DGJixlIDYfO3BkRFAAAEEEEAAAQQiX6Dq/HmVVZxTUVlFcC0ur/DdhREQnSYJR0D847tbdcXnD6nWFQwD266MXanRK/c7tW2+YiAgdu/e3RstDJypsrJSNopoo4s1FwJiTRE+I4AAAggggAACCCAQeQIERKfNwhEQ203Y1KQRxB8PjtNLS/c6tW2+ogXENm3aaNiwYbVOYrec3njjjbW2ExBrkbABAQQQQAABBBBAAIGIEyAgOk0WjoDY68PkJo0gXjN0lSZ/fMSpbfMVA88gDh06VFVVXzz3aGWbsfT222+vdXICYi0SNiCAAAIIIIAAAgggEHECBESnycIRENelZMlmKg3cSlrf31avJ2hfiF53EbjFtFOnTjpx4ouXd9orPn7xi194E9Y4bF6RgFhThM8IIIAAAggggAACCESeAAHRabNwBER7MNVmKK0vGNr2/xmwXK+v2q9zzmieU+3LXgwExF/96lcaPXq0tmzZovXr18ueSbzlllu0ffv2WuckINYiYQMCCCCAAAIIIIAAAhEnQEB0miwcAdFmM7J3HD4/K8kLgjWD4g8HrdAry/cpp7jcqWnzFgMB8b777vPegfjYY4+pXbt26tixo5YvX+69PLNmDQiINUX4jAACCCCAAAIIIIBA5AkQEJ02C0dAtNOfqzqv9PxSLdyerm6zt+vetzboD29v1JAle/TxgWwVlJ51atn8xUBA7NGjh9LS0rwRQxs1PHbsmGwm07qWzMxMJSYmqqSkJPjqi7r2C+W2s2fP6uDBg16dQnlezoUAAggggAACCCCAQKQKEBCdlgtXQLQq2PsEz1ScU3ZRuVJzS3Q8r1R5JWe88OhUMSTFQEDs06dPtUlqQnLyy3gSAuJlxORQCCCAAAIIIIAAAlEhQEB0mjmcAdGpRtiLBMSwNwEVQAABBBBAAAEEEEAgLAIERIedgHgBw24rbd++vV588UVGEJ3+QREBBBBAAAEEEEAAgZYuQEB0WpiA6GC0gCK3mLaARuQSEEAAAQQQQAABBEIqQEB0uAmIDkYLKBIQW0AjcgkIIIAAAggggAACIRUgIDrcBEQHowUUCYgtoBG5BAQQQAABBBBAAIGQChAQHW4CooPRAooExBbQiFwCAggggAACCCCAQEgFCIgONwHRwWgBRQJiC2hELgEBBBBAAAEEEEAgpAIERIebgOhgtIAiAbEFNCKXgAACCCCAAAIIIBBSAQKiw01AdDBaQJGA2AIakUtAAAEEEEAAAQQQCKkAAdHhJiA6GC2gSEBsAY3IJSCAAAIIIIAAAgiEVICA6HATEB2MJhTPnz+viooKlZSUqLi42Ptrn227HxYCoh9agToggAACCCCAAAIIRJIAAdFpLQKig9FIsaqqStnZ2Zo4caLatm2r3/72t97fqVOnqrCwsJFfh+ZrAmJonDkLAggggAACCCCAQMsRICA6bRnWgGijbmdOSzkp0vEtUtpWKe+YdK7CqaF/ikVFRXr77bd11113ady4cVq9erVeffVV/eY3v9HkyZN9UVECoi+agUoggAACCCCAAAIIRJAAAdFprLAFxKpK6eRuacOb0vvtpD//Uhr/K2nB01LSDKko06ll+It2C2lKSoruvvtuvfzyyyotLfUqVVZWpr59++rmm29Wfn5+2CtKQAx7E1ABBBBAAAEEEEAAgQgTICA6DRaWgFh1TkrfJk2/Txr6j1LsN6qvw/5Z+ug5KT/VqWnzFgsKCjR37lzFx8dr27ZtevfddzVlyhTFxcV5zxqa05IlS7wguGzZsmqVWb58ua688krvt9W+CMMHAmIY0DklAggggAACCCCAQEQLEBCd5gtLQCwrkKbdWz0U1gyJFhyX95HOVTq1bb5iamqq2rRpo9atW+vZZ59Vt27dvL/33HOPhgwZ4oXEt956y7u9NDExsVpF9uzZo6uvvlrjx4+vtj0cHwiI4VDnnAgggAACCCCAAAKRLEBAdFovLAFxzyJpyN83HBAtMI69RkqvHsacql/WogXE++67T7feequmT5+utLQ02TYLhdddd51mz56t4cOHywKj3WrqLrbfNddcoxEjRribw1ImIIaFnZMigAACCCCAAAIIRLAAAdFpvLAExLlPSrHfbDwgjvyO9PFrTm2br2ghz0YPn3/+eeXl5QVPZBPT2CQ07dq109ChQ3Xvvfdq//79we+tYGHSAqIFyHAvBMRwtwDnRwABBBBAAAEEEIg0AQKi02JhCYjv3Nl4OLQRxOH/LsX1c2rbfEULiA888IB3O6n7TkMrt2/fXj//+c+9GUt///vfy24pdZdDhw55t5iOHTvW3RyWMgExLOycFAEEEEAAAQQQQCCCBQiITuOFJSDOfqRpI4ivfFtKeMWpbfMVLSDaM4g2Q2nNgPjggw/qpptu0syZM3X77bdrw4YN1SqyadMm/exnP9P8+fOrbQ/HBwJiONQ5JwIIIIAAAggggEAkCxAQndYLS0DcNU8a8q3GRxHfvPrC+xGd+jZXMXCL6QsvvFDtpfenTp3SjTfe6E1YY7Ob3nLLLZo6darMzRb7a+9GvPbaa3Xs2LHmql6Tj0tAbDIVOyKAAAIIIIAAAggg4AlEVEAsLy9XcnKy1q9fr507d8qeiau5VFVVKSsrSzaS9cknn+jw4cOyoNCUJSwBsTRfeueOhgPi0H+QFr8gnatoymVc8j6BgHjbbbdpxowZOnLkiPesoU08c8MNN2jdunWecY8ePfTEE0/o008/9SaxsdFEe3bRtvthISD6oRWoAwIIIIAAAggggEAkCURUQFy5cqU3cYq9jL179+5asGBB8CXthm63Q+bm5mrkyJHeqxl69uyp/v37a/fu3bLg2NgSloBo70FM/VSyZxEtCNZ8xYW9B9Emssk70lj1L9v3gYDYqlUr2Shily5d1LFjR9ntpRMmTFBlZaUqKiqUlJTkjSY+9thjnvfDDz/s7Xvw4MHLVpdLORAB8VL0+C0CCCCAAAIIIIBANApETEC0QPL44497I1oZGRl677331K9fP7lhxIKLhUgb1bKRRpswZdCgQd5rGWz0sbElLAHRKmUjgxYSbRKaqXdJb/5MGnetNLONtO4VKfdwY1W/rN8HAmLXrl21ZcsW7zZSu5U0ISFBrqMFsL1792rWrFmaOHGiPvzwQ2/Etilh/LJWuJ6DERDrgWEzAggggAACCCCAAAL1CERMQLRbRe2WRxshtOXAgQOyEUK7jTQwkYqFl8GDB8tm0AxsswBpqwXMxpawBUSr2PnzUnmhlJksHV4rHUmQcvaH7LZS1yYQEPv06dOkkVf3t34qExD91BrUBQEEEEAAAQQQQCASBCImIK5du9Z7vi0wOmUTpvTu3VtLliwJTpJSUlLijTKOHz/eew2DBZzFixfr9OnTTWqLQEC0YGHlmqsFUBuVtPNYAG2pq00wY+84ND8ziNTrPHPmjPc/EoqLi2u1Zc225XPt/o4JJvQB+gB9gD5AH6AP0Aeirw9YFtq1a5f3389NClEN7PSVBr675K8WLVqkhx56KHicwsJCxcTEaN68ecHRQQuC9uoFe0XD9OnTvdtR7XbT5cuXB/cJHqCOgv0LYLem2gQ4hlJzte07duzwRjFLS0u95x9b4t/9+/frnnvu8UZozTRSr7GgoMB7T6O1Wc225HPt/o0JJvQB+gB9gD5AH6AP0AfoA4EsZNnoUpdmDYgW8uzl7YElLy/PG+H66KOPvElTbLuFmd/97ncaOnSoN3Op3VZqk6q89NJLwVtTA7+v628gIJaVlXm/t/TsrnZ8u13V/tpIZktd7VlOG3WzYBjJ12gjvhZ2LSi67Ui5er/GAw/6AH2APkAfoA/QB+gD9IFAH7AsZP+jwPcB0Ub2bFZNq7gtx48f916nYLeeBp43tEDToUMHvfPOO8H8Zy9st5lMT548GdxWXyEQEOvDsHPbs5B2iymL/wWsvSzQ017+bytqiAACCCCAAAIIIOAPActCEREQbTTo7rvvlr1rz/6Df9WqVd4Iog2B2oiXjXTZM2fjxo2TvQbDbkG19yS+8cYbGjVqlPLz8xsVJyA2ShRROxAQI6q5qCwCCCCAAAIIIICADwQiJiCa1aRJk7z3IE6ePFm9evXyPtvtg/Hx8cHXK9iIUefOnfX66697s5naO/xsptP6RgXdNiAguhqRXyYgRn4bcgUIIIAAAggggAACoRWIqIBoo4Jz5szxwt+CBQuCt41OmTJFiYmJnpyNJtqo4ttvv+2NJlo4tFtPm7IQEJuiFDn7EBAjp62oKQIIIIAAAggggIA/BCIqIDY3GQGxuYVDe3wCYmi9ORsCCCCAAAIIIIBA5AsQEJ02JCA6GC2gSEBsAY3IJSCAAAIIIIAAAgiEVICA6HATEB2MFlAkILaARuQSEEAAAQQQQAABBEIqQEB0uAmIDsZFFrds2aJHHnnEe+9g4LUjF3mIOne32Wn37t3rzUx73333qX379poxY4Y3S22dP3A2EhAdDIoIIIAAAggggAACCDRBgIDoIBEQHYyLKB45ckRPPfWUfvCDH2j37t3B91JexCHq3fXYsWO6+eab1bp1a40fP14DBw7UL37xC40ZM6bRkEhArJeVLxBAAAEEEEAAAQQQqFOAgOiwEBAdjEaKNkpoAeyzzz7TY489ph/96Ef6/ve/f1kDop2jd+/euuuuu3T06FGvRjZLrYXDX//610pKSmowjBIQG2lEvkYAAQQQQAABBBBAoIYAAdEBISBewLBgZSN3J06c0KlTp2Tvljxw4IAyMjJUUVHh7WR/165dq9tvv10dO3ZUp06ddM011zQ5IJ48edI7pr2CxM61f/9+LwQWFRXJbiu1xb6zYw4aNOhCxT7/5/bt273Q+NZbb3khtdqXzgcCooNBEQEEEEAAAQQQQACBJggQEB0kAuIFjNTUVLVt21ZPP/20YmNj1a5dO9nzf0888YSWLl0qG8Wz8GXPHb7zzjvKzMzUpEmTdN111zU5INpxLfxNmzbNG4H8wx/+oAcffFBvvPGGF0QtJO7atUs//elPNX36dKeVpJycHK9+Xbp0UVlZWbXv3A8ERFeDMgIIIIAAAggggAACjQsQEB2jSw2I56rO6ey5szpTeSbsa8W5ClWdvzAS51xik4oWEO+//3796le/0uDBg7Vu3TqtXr1aFshuvPFGbd261bu107wCE9J8mYBot6Va6Jw/f742btyocePG6Y477vD+FhYWeue98sortWTJkmr1Li8v9yarsUlxbJSxvoWAWJ8M2xFAAAEEEEAAAQQQqFuAgOi4XGpAnLd3nrrGddVzy54L+9pzZU8lnUhyrq7pRQuINinM448/rsOHDwd/aLea/vKXv1SPHj2C2wKFLxMQLfwtXrw4GDItFPbr10+/+93vvPPGxcXpqquukv11F7u91cKhjWwSEF0ZyggggAACCCCAAAIIXJoAAdHxu9SAuCltkyYnTtb4bePDvk7dPlWH878Id85lNlq0gGi3fNqMoXY7aWCx2z5tZLFVq1aBTcG/dQVE27+kpET2XGFgtVtCbbvdYnrttdd6zzgGDyJp8uTJXgjdtm2b4uPjZSHSbmt1FzvGww8/7AVYAqIrQxkBBBBAAAEEEEAAgUsTICA6fpcaEO2WzsqqSl+sdrtr4PZP5xKbVLSA2KZNG7388su19rdgZjOI1lzqCog2EU3fvn310EMPBde3335bBQUFXkC0ZxbtNlB3sWcS7TUWn376qfc8oz2DaO89dJfs7Gyvft27d5fdblrfwi2m9cmwHQEEEEAAAQQQQACBugUIiI7LpQZE51ARXbSAaJPSWLgLzFpqF2TlW265xRu9q3mBdQXE06dPKyEhwbuN1G4ltdVmILVQF5ikxmZGdZfXX39dN910k/bt2+ftd/3119eaxTQxMVF33nmnNzGOWz/3OFYmINYU4TMCCCCAAAIIIIAAAg0LEBAdHwLiBYzAM4j2HKLNVBpYbDIZu+Vz5syZgU3Bv3UFxOCXdRQsIP7kJz/Rm2++GfzWnnF89NFH9ac//Uk2+mhLTEyMfvvb3wafhbRbXkePHq2bb75Ze/bsaXCUlIAYpKWAAAIIIIAAAggggECTBAiIDhMB8QJGICDa7Z326gkb1XvxxRe9GUwtwNW8LdR+9WUC4g9+8ANvRNJC4NixY73bUG+77TYvlFpb2GJ1sW32TKS999D2tVtcJ0yY4D3XeKHGdf+TgFi3C1sRQAABBBBAAAEEEKhPgIDoyBAQL2AEAuJzzz2nDz74QE899ZS3Wiiz20brWmx0sX379jp06FCDo3qB39oI4tVXX601a9bIniW0ZxsHDRqk5OTkWhPj7N2715swx47fqVMnzZs3T8XFxYFD1fuXgFgvDV8ggAACCCCAAAIIIFCnAAHRYSEgXsAIBMQ+ffp4M446RJetGHgGMTMz87Ids+aBCIg1RfiMAAIIIIAAAggggEDDAgREx4eAeAGDgOh0CooIIIAAAggggAACCESRAAHRaWwC4gUMAqLTKSgigAACCCCAAAIIIBBFAgREp7EJiBcw7DlDe0m9vaz+y75L0WGts2jPGtprLxp60X2dP7yIjdxiehFY7IoAAggggAACCCCAgCQCotMNCIgORgsoEhBbQCNyCQgggAACCCCAAAIhFSAgOtwERAejBRQJiC2gEbkEBBBAAAEEEEAAgZAKEBAdbgKig9ECigTEFtCIXAICCCCAAAIIIIBASAUIiA53UwNife8CdA5F0QcC5eXlOnDgQLM+5+iDy6QKCCCAAAIIIIAAAghcNgECokPZWEC0748cOaLc3Nxmm7zFqQ7FSxCwyXWKi4t18OBBnTlz5hKOxE8RQAABBBBAAAEEEIgeAQKi09aNBUTbNSsrS0ePHvVGpSoqKrxZfux3rP4xqKyslI0eZmRkKC0tTVVVVU4rU0QAAQQQQAABBBBAAIH6BAiIjkxTAqKNRqWnp8veFZiZmekFRguNrP4xOHHihI4fP+6tJSUljPY6fZwiAggggAACCCCAAAINCRAQHZ2mBETb3SY/KSgoUE5ODsHQh+E4OztbeXl5KisrIxw6/ZsiAggggAACCCCAAAKNCRAQHaGmBkT7iT3jZrcu2m9Y/Wdg7cOCAAIIIIAAAggggAACFydAQHS8LiYgOj+jiAACCCCAAAIIIIAAAgi0CAECotOMBEQHgyICCCCAAAIIIIAAAghEnQAB0WlyAqKDQREBBBBAAAEEEEAAAQSiToCA6DQ5AdHBoIgAAggggAACCCCAAAJRJ0BAdJqcgOhgUEQAAQQQQAABBBBAAIGoEyAgOk1OQHQwKCKAAAIIIIAAAggggEDUCRAQnSYnIDoYFBFAAAEEEEAAAQQQQCDqBAiITpMTEB0MiggggAACCCCAAAIIIBB1AgREp8kJiA4GRQQQQAABBBBAAAEEEIg6AQKi0+QERAeDIgIIIIAAAggggAACCESdAAHRaXICooNBEQEEEEAAAQQQQAABBKJOgIDoNDkB0cGgiAACCCCAAAIIIIAAAlEnQEB0mpyA6GBQRAABBBBAAAEEEEAAgagTICA6TU5AdDAoIoAAAggggAACCCCAQNQJEBCdJicgOhgUEUAAAQQQQAABBBBAIOoECIhOkxMQHQyKCCCAAAIIIIAAAgggEHUCBESnyQmIDgZFBBBAAAEEEEAAAQQQiDqBiAqIBQUFGj9+vHr37q1Jkybp+PHjtRqsuLhYr732mp577rngunjxYpWVldXat+YGAmJNET4jgAACCCCAAAIIIIBANAlEVEAcM2aMXnjhBS1cuFC9evXS6NGjlZubW629srKy9MQTT2jOnDnatGmTt1qQrKysrLZfXR8IiHWpsA0BBBBAAAEEEEAAAQSiRSBiAqKNAN55553asmWLzpw5o4SEBPXp00fJycnBtjp//rxSU1P10EMPKTMzU3ZxtlZVVcm+a2whIDYmxPcIIIAAAggggAACCCDQkgUiJiAmJSWpVatWqqio8NojPT1d3bt3V3x8fDD82cV8/PHH3giilS92ISBerBj7I4AAAggggAACCCCAQFMEMgvKNH3TMW/NLipvyk/Csk/EBMQVK1aoTXoTnMMAACAASURBVJs2QaS8vDxvBNFuNw3cPmrhcfr06brjjjv07LPPqm3btho1apT3rKKNIja2BALi6dOnvWcWbdSSFQP6AH2APkAfoA/QB+gD9AH6AH3gUvpAxqlC9Zu/Q1fELPPWoYt3KSu/2JdZw7LQrl27vDsxG8tPjX3/lcZ2uJTvFy1apHbt2gUPYRPWxMTEaP78+cFRxbNnz2rmzJnedhtx3Lx5s/70pz/prbfekk1e09gSCIgpKSnav38/Kwb0AfoAfYA+QB+gD9AH6AP0AfrAJfeBjxP36NEJ64MB8anJH2tz8t5LPm5zZBbLQhERENetW6d77rnHe57Qgl52drY3Uc2yZcuC6daeM7SQV17+xZCtBUub0CYjI6OxfOj91p5ptJFIG3FkxYA+QB+gD9AH6AP0AfoAfYA+QB+41D5QXHZW729J1f1/3uit8xPTVHrGn5nDslBEBMSjR4/qtttuC85aasm2Z8+e2rBhQ/AZRLvV1D7bBQWWJUuWeLeiXkxAtJDJggACCCCAAAIIIIAAAghcLoHCsgptPZbnrcXlF+ZVuVzHvpzHsSwUEQHRwt+TTz6pKVOmeDOVTp48Wf3799fhw4dVWlrqjfrZ7Kbjxo1T165dve0WIgcOHKi33377om4xJSBezi7GsRBAAAEEEEAAAQQQQCBSBCImIBqojQ527txZHTp08GYwXbVqlffKiyFDhshuQbWhXwuMFgqfeeYZPf300xo2bJgOHDgQvDW1oYYxDLvFlIDYkBLfIYAAAggggAACCCCAQEsViKiAaPfDpqWleYHPXnMReNbwyJEjys/P99rIQmJOTo4OHjzoradOnQrOctpYIxIQGxPiewQQQAABBBBAAAEEEGjJAhEVEJu7IQiIzS3M8RFAAAEEEEAAAQQQQMDPAgREp3UIiA4GRQQQQAABBBBAAAEEEIg6AQKi0+QERAeDIgIIIIAAAggggAACCESdAAHRaXICooNBEQEEEEAAAQQQQAABBKJOgIDoNDkB0cGgiAACCCCAAAIIIIAAAlEnQEB0mpyA6GBQRAABBBBAAAEEEEAAgagTICA6TU5AdDAoIoAAAggggAACCCCAQNQJEBCdJicgOhgUEUAAAQQQQAABBBBAIOoECIhOkxMQHQyKCCCAAAIIIIAAAgggEHUCBESnyQmIDgZFBBBAAAEEEEAAAQQQiDoBAqLT5AREB4MiAggggAACCCCAAAIIRJ0AAdFpcgKig0ERAQQQQAABBBBAAAEEok6AgOg0OQHRwaCIAAIIIIAAAggggAACUSdAQHSanIDoYFBEAAEEEEAAAQQQQACBqBMgIDpNTkB0MCgigAACCCCAAAIIIIBA1AkQEJ0mJyA6GBQRQAABBBBAAAEEEEAg6gQIiE6TExAdDIoIIIAAAggggAACCCAQdQIERKfJCYgOBkUEEEAAAQQQQAABBBCIOgECotPkBEQHgyICCCCAAAIIIIAAAghEnQAB0WlyAqKDQREBBBBAAAEEEEAAAQSiToCA6DQ5AdHBoIgAAggggAACCCCAAAJRJ0BAdJqcgOhgUEQAAQQQQAABBBBAAIGoEyAgOk1OQHQwKCKAAAIIIIAAAggggEDUCRAQnSYnIDoYFBFAAAEEEEAAAQQQQCDqBAiITpMTEB0MiggggAACCCCAAAIIIBB1AgREp8kJiA4GRQQQQAABBBBAAAEEEIg6AQKi0+QERAeDIgIIIIAAAggggAACCESdAAHRaXICooNBEQEEEEAAAQQQQAABBKJOgIDoNDkB0cGgiAACCCCAAAIIIIAAAlEnQEB0mpyA6GBQRAABBBBAAAEEEEAAgagTICA6TU5AdDAoIoAAAggggAACCCCAQNQJEBCdJicgOhgUEUAAAQQQQAABBBBAIOoECIhOkxMQHQyKCCCAAAIIIIAAAgggcMkCpWcrNW9bmsasOeCtszan6mRh+SUft7kOQEB0ZAmIDgZFBBBAAAEEEEAAAQQQuGSBP687pOtfWqPvxCzz1quGrNLQJXuVV3L2ko/dHAcgIDqqBEQHgyICCCCAAAIIIIAAAghcssDNo9YFw2EgJP5yeLwOZZ++5GM3xwEIiI4qAdHBoIgAAggggAACCCCAAAKXLNBu4qe1AuLdYz9Ram7JJR+7OQ5AQHRUCYgOBkUEEEAAAQQQQAABBBC4ZIH0/FK1Gb9JV3x+i+lvx3ysLUdyVVV1/pKP3RwHICA6qgREB4MiAggggAACCCCAAAIIRJ0AAdFpcgKig0ERAQQQQAABBBBAAAEEok6AgOg0OQHRwaCIAAIIIIAAAggggAACUSdAQHSanIDoYFBEAAEEEEAAAQQQQACBqBMgIDpNTkB0MCgigAACCCCAAAIIIIBA1AkQEJ0mJyA6GBQRQAABBBBAAAEEEEAg6gQIiE6TExAdDIoIIIAAAggggAACCCAQdQIERKfJCYgOBkUEEEAAAQQQQAABBBCIOgECotPkBEQHgyICCCCAAAIIIIAAAghEnUBEBcTjx4+rc+fOuuWWW9SlSxdt375dVVVVdTZaUVGRhg8f7q15eXl17lNzIwGxpgifEUAAAQQQQAABBBBAIJoEIiYgWhDs3r27hg0bpj179njBb8CAAUpPT6/VXpWVlVq9erVatWqloUOHioBYi4gNCCCAAAIIIIAAAggggEAtgYgJiKdOndKtt96qo0ePehexY8cO9erVS1u2bNH58+eDF2ZlG2kcNWqU7rvvPgJiUIYCAggggAACCCCAAAIIINCwQMQExE2bNumuu+6SVdiWkydPqmfPnoqLi6t2m2l5eblmz56tMWPGaMSIEV8qINoIpI1YsmJAH6AP0AfoA/QB+gB9gD5AH6APRFMfqKio0K5du4K5q+E42fC3X2n460v7dunSpXrwwQeDBykoKFDfvn01f/58WaCzxRpu586d6tOnj/bv369x48Z9qYCYlpamjIwMVgzoA/QB+gB9gD5AH6AP0AfoA/SBqOoDloUiJiC2bds2GBDz8/O9gLhw4cJgQLSJaWJiYrzQaGHxywbErKws5eTksGJAH6AP0AfoA/QB+gB9gD5AH6APRFUfsCwUEQFx8+bNuvPOO4NDnZmZmd4tpqtWrQreYrp161Zde+21evjhh9WxY0fdfvvt3oyndqtpbm5uMFzWV7DbV5OTk73Aac8ysmJAH6AP0AfoA/QB+gB9gD5AH6APRFMfsLszIyIg2oihO0mNveKi5iQ1NpHN2rVrlZCQ4K32jGKnTp20YcMG2bOJjS2BgBh4zrGx/fkeAQQQQAABBBBAAAEEEGhJApaFIiIgWmq3QGhrYmKiBg4cqMGDB3uT1djziGVlZd6In/sA6dixYzVkyBBv9NB+39hCQGxMiO8RQAABBBBAAAEEEECgJQtETEC0RrCZS7t27eqNJNoENSkpKV7btG/fXnPnzq3VTpMmTdLIkSNlo49NWQiITVFiHwQQQAABBBBAAAEEEGipAhEVEJu7EQiIzS3M8RFAAAEEEEAAAQQQQMDPAgREp3UIiA4GRQQQQAABBBBAAAEEEIg6AQKi0+QERAeDIgIIIIAAAggggAACCESdAAHRaXICooNBEQEEEEAAAQQQQAABBKJOgIDoNDkB0cGgiAACCCCAAAIIIIAAAlEnELKAePbsWRUVFfkamIDo6+ahcggggAACCCCAAAIIINDMAiELiPayxUcffVTjxo3zXrxogdFvCwHRby1CfRBAAAEEEEAAAQQQQCCUAiELiOXl5dqyZYuGDh2q3/3ud2rXrp2mTp2q7OzsUF5vg+ciIDbIw5cIIIAAAggggAACCCBwkQLLdmaqy/tJem1lig5mFV/kr0O/e8gContpp0+f1urVq9WjRw9df/316tChgxYtWuS90N4qFK6FgBguec6LAAIIIIAAAggggEDLE1ix64S+E7Ps83Wpnnp3i47kFOn8+fO+vdiQBcSqqioVFxcrPT1dmzdv1oQJE/Tss8+qbdu2GjlypBcWH3/8cW3YsCFsWATEsNFzYgQQQAABBBBAAAEEWpzAayv3BwPit2OW6PqR72j0xzOVXeKfuyhroocsIJ48eVJvvfWWFwQ7deqkV155RQkJCSopKfHqZKOKb7zxhrfWrGSoPhMQQyXNeRBAAAEEEEAAAQQQaPkCyWkFumfcBl3/0mrdNHK5vj/qKf3H6P/QuqPrfHvxIQuI+/bt88LhRx99pNTUVFVWVnooVoHMzExVVFRox44d2rp1a9iwCIhho+fECCCAAAIIIIAAAgi0SIGk1HxN3XBUH2zdr2cW9dK/vvavij8S79trDVlAPHjwoN59913VnL00KytLvXv39gUQAdEXzUAlEEAAAQQQQAABBBBocQJF5UUaED9A//Lqv2jNkTW+vb5mD4iffvqp+vXrp6efflqtWrVSnz59vM+2zdbnnntOrVu39gUQAdEXzUAlEEAAAQQQQAABBBBocQKF5YVeQPynV/9Jq4+s9u31NXtAtBHC6dOne6+3uP/++zVlyhRNmzbNW2377NmztXv3bl8AERB90QxUAgEEEEAAAQQQQACBFicQCIj/OOoftfpwFAdEa9kzZ84oLy9Phw4dUllZmffZttlqt5z6ZZpXAmKL+/eQC0IAAQQQQAABBBBAwBcCFhD7x/fXP4z6B606vMoXdaqrEs0+gjhkyBCVlpbq6NGjio2NlX2ua62rcqHeRkAMtTjnQwABBBBAAAEEEEAgOgQCAfFbI7+llYdX+vaiQxYQjx07VmcwDIRFPwgREP3QCtQBAQQQQAABBBBAAIGWJ2ABsV98P33zlW8q7lCcby+w2QNiTk6OmrL6QYiA6IdWoA4IIIAAAggggAACCLQ8gYLyAi8gfn3E16M7IA4dOtSboKahv8OGDfNFDyAg+qIZqAQCCCCAAAIIIIAAAhEncLKwXAn7s7Vqz8laa/y+LCWlZajfmn762oivacXBFb69vmYfQZw0aZKasvpBiIDoh1agDggggAACCCCAAAIIRJZATvEZjVi+Tz+NXanvxCyrtX5/4Ap1mL5e7T98QX83/O+0/OBy315gswfElJQU2Ulsohor17f6QYiA6IdWoA4IIIAAAggggAACCESWwCcHcvSzIatqBUM3LH5/0Dz950sP66svf1XLDizz7QU2e0B8/vnndfr0aR04cEBWrm/1gxAB0Q+tQB0QQAABBBBAAAEEEIgsgQ2HTunaYasbDIg/GDxP3x7eXn/z8t9o6YGlvr3AZg+IycnJqqys9EKiletb/SBEQPRDK1AHBBBAAAEEEEAAAQQiS6CorEJvrzuknw2texTxh4Pi9MKcDeqwsJv++qW/ju6A6DatBcXdu3dr+vTpmjBhghYvXqySkhJ3l7CWCYhh5efkCCCAAAIIIIAAAghErEDp2UplFpQpPb+01pqRX6bU/Gz1XdNXfznsL7Vk/xLfXmezjyAGrry4uNgLhXfccYeeeOIJvfDCC2rdurXuvPNO7/bTwH7h/EtADKc+50YAAQQQQAABBBBAoOUK5Jflq+/qvvq/w/6vFu9f7NsLDVlA3LVrlzp27KhNmzbp/PnzHoidfPTo0br//vt9AURA9EUzUAkEEEAAAQQQQAABBFqcQCAg/sXQv9CilEW+vb6QBcSkpCT16NFDJ0+erIZhwfGXv/xltW3h+kBADJc850UAAQQQQAABBBBAoGUL5JXlqc/qPvo/Q/5PdAfEPXv2yNbVq1erS5cumjp1qnbu3Kn9+/dr+/btGjhwoDezqR+6AwHRD61AHRBAAAEEEEAAAQQQaHkCgYD4lSFf0UcpHwXvqvTblTb7CGK/fv1ka9++fdWhQwc99NBD6tmzp1588UXvOcR7771X/fv394ULAdEXzUAlEEAAAQQQQAABBBBocQJeQFzVRxYQF+5bGL0Bcc2aNWrK6oceQED0QytQBwQQQAABBBBAAAEEIksg9/QZrdh1wlutXNdiAbH3qt5eQJw/91GdXzdC2jy+rl3Duq3ZRxADV2cT0+Tn52vLli2Kj48Phsa4uDjvttPAfuH8S0AMpz7nRgABBBBAAAEEEEAg8gQsEL619pB+PXKtt1rZ3otYc8nLP6reC5/wAmK32L/Uytivqmz4v0trYmvuGtbPIQuINjnNsGHD9Oijj+qBBx7QY489pgcffFC33XYbt5iGtQtwcgQQQAABBBBAAAEEEPiyAnszi3TnmI/1nZhl3mrl1Nza73rPTdui/u/8RjfF/oWej/1LvRH71yqK/br08r9/2VM3y+9CFhCTk5PVqVMnbwTRXm3x3nvv6ejRo97MpoMGDWqWi7vYgzKCeLFi7I8AAggggAACCCCAQHQLHMstUcdpW4MB0conC8troeRm7dag91t7wTAv9uteOKyygPjmVbX2DeeGkAXErVu3qnv37iouLtb8+fM1ceJEFRQU6PDhw/rNb34TToPguQmIQQoKCCCAAAIIIIAAAggg0ESBg1nF6vrBdm+1cl1LbmmuBsb314SR/4807J+l2G/4LhxavUMWEO19h7169dK+ffv0ySefeLebHjt2TLb9uuuuq8sw5NsIiCEn54QIIIAAAggggAACCESFgAXEQWsHaeK2ib6+3pAFxLy8PI0dO1YvvfSS9x5Ee7VF7969vWcSucXU132EyiGAAAIIIIAAAggggMAlCpwqPaWBawcSEF3HoqIi77lDu7XURg/ff/99zZo1S4WFhe5uYSszghg2ek6MAAIIIIAAAggggECLFiAg1mhee83FqVOnvFdcTJs2TVOmTNGcOXO8W0xr7Bq2jwTEsNFzYgQQQAABBBBAAAEEWrRAMCAmcoup19C5ubl6++23vYlqXn75Zb366qsaPHiwnn32Wa1bt84XnYGA6ItmoBIIIIAAAggggAACCLQ4gUBAnJQ4ydfXFrJnEG0ymueee05r1qxRdna2d1vp8ePHvdDYrl07XyAREH3RDFQCAQQQQAABBBBAAIEWJ3Cq5MIziATEz5t2+/bt6tmzp06cOFGtsXfs2KEbb7yx2rZwfSAghkue8yKAAAIIIIAAAggg0LIFckpyvElqoj4gZmVlyVYbQRwwYIDGjBnjTVRjE9akpKTo6aef1qRJ/hhmJSC27H8puToEEEAAAQQQQAABBMIlQED8XP4HP/iBfvjDH8r+uqu7zcp+WAiIfmgF6oAAAggggAACCCCAQMsT8AJi/EBF/QhiZmam3DU9PV2pqaneay7sGcTAd37oAgREP7QCdUAAAQQQQAABBBBAILIEqs6f19nKKm+1cl1LICBOTpxc19e+2WaZyO7+tL+XunyloQNUVVXJ3n+4YcMG7xUXb775pux1F3v37lVFRUVDPw3ZdwTEkFFzIgQQQAABBBBAAAEEWoRAZVWVUk4UaWRcirda+VxV7ZBoAXHA2gEiIH7e7BYOJ06cqD/+8Y8aOHCghg8frm7duumBBx7Qxx9/3KTOUV5eruTkZK1fv147d+6UPcdYc6msrPSecfzkk0+8MHrs2LEmB1ACYk1NPiOAAAIIIIAAAggggEBDAtlF5Rq8aLeuiFnmrVbOLz1b6yfZJdneJDWTkxhB9HB2796t559/Xp9++qksxNligW/KlClq06ZNLcC6NqxcudI7Rt++fb33KS5YsEClpaXBXW2U8uDBg7LvY2Ji1Lt3b7344ovav3+/ztcz1Bv8seQNo1oAvRzDqe5xKSOAAAIIIIAAAggggEDLFMgsKFPvuTuCAdHKuafP1LpYC4gD4gdoStKUWt/5aYNloZDcYpqUlKQePXro5MmT1a7fTn799ddX21bXh7Nnz+qRRx7RnDlzvGO8//776tevnxf+Avtb8Fy2bJlefvllZWRk6NChQ94opf3Gft/YwghiY0J8jwACCCCAAAIIIIAAAq5AecU5JezP1rMzE73VyvY8Ys2FgFhDxEb2LCB++OGHOnXqlDd6aLd/Dh48WM8880yNvWt/PHz4sG677Tbl5uZ6Xx44cMB7r6LdShoYHbQRxLS0NNnkN1a2kcMuXbpo4cKFTbrNlIBY250tCCCAAAIIIIAAAggg0LBAWcU5Hco+7a1WrmvxAuJaRhCDNmVlZVqyZIkef/xxtWvXzhsNtFtL7TlEC3uNLWvXrlXr1q294Gf7Wsi0W0jtmDVvCS0pKdHs2bO9/bt37+6NJAZCZEPnCQREG220MisG9AH6AH2APkAfoA/QB+gD9AH6wOXoAyeKTqj/mv6avG2yr3OGZaGQ3GJ6+vRpLwjaqOGWLVuUkJCgffv2KS8vLzgC2FB4W7RokR566KHgLoWFhd5zhvPmzas1OnjmzBlv9HDmzJl67LHHZLej2vOOjS3W8PYMok2AYyisGNAH6AP0AfoAfYA+QB+gD9AH6AOXow8kbE3Q07Of1pDFQ3ydMwJZyLLRpS4NvuYiMTHRuyXURv6+zLJixQpvxtPAby1Y9unTRxYcG6q8PX9ot7ba+xYbWwIBkRFE/i+R9QVWDOgD9AH6AH2APkAfoA/QBy5XH8gszFS/Nf0YQQyEMhst7NWrlzdymJWVpZycnGprYL/6/lpqt2cQAyOBNhJpwW/dunXBEUibpMZmSd2zZ0/wMKtWrfKCaXp6enBbfQVrfGYxrU+H7QgggAACCCCAAAIIIHDRAlWV0oE4ZY26QgNi/0rvxP6N9OZV0vHNUtWlj9JddH0a+YFlIste9vdSlwZHEG1GUXv+sFWrVt4ziB06dFCnTp3UuXNnb23s5BYM7777bu/dhvaMoQU/G0G0IVALhjYpje0zYsQIDRo0yHtHor0ncfz48d6spoHJbRo6DwGxIR2+QwABBBBAAAEEEEAAgYsWKMqQXvuesmK/9kVAjP2GNO5aqfjERR+uuX8QsoBoAe2DDz7QSy+95M0sauHQAt5bb73lvZqiKRc6adIk7z2IkydP9kYj7XNBQYHi4+Nls5xaSNyxY4c6duyocePGeesLL7wgm+m0KQmYgNiUVmAfBBBAAAEEEEAAAQQQaLJAQZr08r/p5OcBcaqNIFpAHHmFVNj4XY5NPs9l2jFkAdFG82yymD/96U/eS+5tBtKuXbt6ZbutsymLTUxjzxS+/vrrWrBgQfCdilOmTJE942hLRUWFtm7d6gVPC58bN26UzaDalIWA2BQl9kEAAQQQQAABBBBAAIEmC5QXSku76+TL/+KNIHoB8ZVvS/FDpDNFTT5MqHYMWUDcu3evFw6XLl3qTRhjk8wcOXJEb7zxhp566qlQXW+D5yEgNsjDlwgggAACCCCAAAIIIPBlBE5n6eSmsRow/U5NnfeYlPy+VFbwZY7U7L8JWUBMSkqqczZRe4bwxhtvbPYLbcoJCIhNUWIfBBBAAAEEEEAAAQQQuFiBk6dPqn98f03dPvVifxrS/UMWEDMyMjR8+HDZ7aBpaWkqLS31RhBjYmI0dOhQ78X39gqM4uLikAK4JyMguhqUEUAAAQQQQAABBBBA4HIJEBBrSNoI4nXXXadrr71Wv/nNb3Trrbfq17/+ta688kr9/Oc/1y233KKbb75Zr7zySo1fhu4jATF01pwJAQQQQAABBBBAAIFoEjhRfMIbQXx3+7u+vuyQjSCeOXNGNorY2Jqfnx82MAJi2Og5MQIIIIAAAggggAACLVrAAuKA+AEiIEZQMxMQI6ixqCoCCCCAAAIIIIAAAhEkwAhiBDVWoKoExIAEfxFAAAEEEEAAAQQQQOByCgQC4nvJ713Ow172Y4XsFtPLXvNmOCABsRlQOSQCCCCAAAIIIIAAAtEiUJAmHVojpSyttWbu+ED9P/qjCIgR1BkIiBHUWFQVAQQQQAABBBBAAAE/CeQfk5b2kEb8pxT7jVpr5kv/rP6v/b96L3Gyn2pdqy6MIDokBEQHgyICCCCAAAIIIIAAAgg0XWDnh9Ko79YKhoGwmBn7NfUf8jd6b8u4ph8zDHsSEB10AqKDQREBBBBAAAEEEEAAAQSaLrB3kfT6DxsJiF/VNAJi003DvScBMdwtwPkRQAABBBBAAAEEEIhQgdI8KeEVaeR/1RkSM1/+V/V/4781bftUX18gI4hO8xAQHQyKCCCAAAIIIIAAAgggcHECZ05LhRlSQWqtNSNjm/rHddO05GkXd8wQ701AdMAJiA4GRQQQQAABBBBAAAEEELhsAhlFGeof31/TdhAQLxtqcx+IgNjcwhwfAQQQQAABBBBAAIHoFPAC4hoCYkS1PgExopqLyiKAAAIIIIAAAgggEDECgYA4fcd0X9eZW0yd5iEgOhgUEUAAAQQQQAABBBBA4LIJBG4xJSBeNtLmPxABsfmNOQMCCCCAAAIIIIAAAtEokF6U7j2DSECMoNYnIEZQY1FVBBBAAAEEEEAAAQQiSMACYr81/TRjxwxf15pbTJ3mISA6GBQRQAABBBBAAAEEEEDgsgkQEC8bZegOREAMnTVnQgABBBBAAAEEEEAgmgS8gBjPCGJEtTkBMaKai8oigAACCCCAAAIIIBBWgeLyCg1bulc3j1qr34xaqx4fJuvYqZI665RWmHbhFtOd3GJaJ5AfNxIQ/dgq1AkBBBBAAAEEEEAAAX8KDPpot74Ts6za+uzMRGUXldeqcCAgztw5s9Z3ftpgmWjXrl2yv5e6fOVSDxDu3xMQw90CnB8BBBBAAAEEEEAAgcgR+P3YT6qFQwuLt41O0NE6RhEJiJHTrsGaEhCDFBQQQAABBBBAAAEEEECgEYFJHx/RdS+t1hWfjyJeNWSVhi/bp/zSs7V+SUCsReL/DQRE/7cRNUQAAQQQQAABBBBAwC8CJWcqNXXDUXWesU2dZmzTm2sOKLOgrM7qERDrZPH3RgKiv9uH2iGAAAIIIIAAAgggEKkCxwuPe5PUzNo5y9eXYJmIZxA/byICoq/7KpVDAAEEEEAAAQQQQCBiBQiIEdh0BMQIbDSqjAACCCCAAAIIIIBABAgQECOgkWpWkYBYU4TPPMzRIgAAIABJREFUCCCAAAIIIIAAAgggcDkELCDGrIkRt5heDs0QHYOAGCJoToMAAggggAACCCCAQJQJBEYQ39/1vq+v3DIRzyB+3kQERF/3VSqHAAIIIIAAAggggIBvBbJLsrXu6DpZEKw6X1WrnqkFqd4IIgGxFo1/NxAQ/ds21AwBBBBAAAEEEEAAAT8LvJv8rr75yjc1YO0AFZYX1qqqBcR+a/qJgFiLxr8bCIj+bRtqhgACCCCAAAIIIICAnwWmJE3R14Z/zQuB9QVEewaRgOjnVqxRNwJiDRA+IoAAAggggAACCCCAQJMEJiVO0t++/LdeQCwoL6j1m8Atph/s+qDWd37aYJmIZxA/bxECop+6JnVBAAEEEEAAAQQQQCByBCZsm6CvvvzVegPisYJj3jOIBMTIaVMRECOosagqAggggAACCCCAAAJhEPjsaJ5eW5mioUv2BNcxaw7omQXD9bfD/1b94/urrhFEAmIYGutST0lAvFRBfo8AAggggAACCCCAQMsV2HwkVw9O+FTfG7Bc34lZFly/P3CFrnipi/725b/TwLUDGw6Iu7nFNGJ6CAExYpqKiiKAAAIIIIAAAgggEHKBV+NS9KPBccFg6IbEvx/YSX83/GsatHZQ3QEx/8ItprN3zw55vS/mhJaJeAbxczEC4sV0HfZFAAEEEEAAAQQQQCC6BOYlpuvaYatrBcRvxyzVtwY8rW+88g29uO5FAuLn3eIrkd49CIiR3oLUHwEEEEAAAQQQQACB5hV4b9MxXTN0VbWQ+MsRq3XjW9319yP/XrEJsXUGxKP5R71JahhBbN72uaxHJyBeVk4OhgACCCCAAAIIIIBAVAhUVlVq1MZR+qdX/0lDEoaooKz2ay4IiBHYFQiIEdhoVBkBBBBAAAEEEEAAgTALlFWUacj6Ifq31/5Nw9YPqz8gro7RnN1zwlzbhk9vmYhnED83IiA23Fn4FgEEEEAAAQQQQAABBGoL5JTkqNuKbvrum9/Vyx+/rPyy/Fo7eSOIBMRaLr7eQED0dfNQOQQQQAABBBBAAAEEfClwoviE+qzqo2smXqPhnwyvPyCuYQTRlw1YX6UIiPXJsB0BBBBAAAEEEEAAAQTqE8gszvQmoPnF5F9o+Md1B8Qj+UfUd01fzdnDLab1OV709oKCAo0fP169e/fWpEmTdPz48VrHOHv2rBISEjR48GANGDBAH330kQoLC2vtV9cGAmJdKmxDAAEEEEAAAQQQQACBhgQyijK8gHjDOzfUO4JoATFmdYw+3PNhQ4cK+3eWiSLmGcQxY8bohRde0MKFC9WrVy+NHj1aubm5QUS7mG3btql9+/aaMWOGPvzwQz377LPe/mfOnAnuV1+BgFifDNsRQAABBBBAAAEEEECgPoH0wnQvIN409aZ6n0H0RhBX9yUg1od4sdtLS0t1++23Kzk5WZWVldq4caP69OmjpKSk4KEsBI4aNUrDhw9XRUWFt58FxWHDhiknJye4X30FAmJ9MmxHAAEEEEAAAQQQQACB+gSOFx5X39V99eupv643IB7OO+ztM3fP3PoO44vtETOCaEGwVatWXvAzufT0dHXv3l3x8fE6f/68h2kXc+jQoWq3nn7wwQeKiYnRyZMnGwUnIDZKxA4IIIAAAggggAACCES1wKeHczVyRYpW780KOqQWpKrP6j66+b2bGw+IewmIQbhLKaxYsUJt2rQJHiIvL88bQbTbTW1EseZioTEtLU09evTQn//8Z50+fbrmLrU+BwKi7VtWVsaKAX2APkAfoA/QB+gD9AH6AH2APhDsAxsPnNRNr8Trv2KW6TsxyxS3M937LuVkinqs6KGbp96s2PhYZeZnBn8TyBW7M3d7+8zaPqvWd4F9/PDXslBEPIO4aNEitWvXLhjqbMIaGxmcP39+cFQx8GVVVZVOnDjh3WraqVMn7du3LzjKGNinrr+BgJiSkqL9+/ezYkAfoA/QB+gD9AH6AH2APkAfoA8E+8DklUm6dmicFw6viFmmUR9t9b6LT4xXhzkddMP4G9Rtfjd9tvOz4G8CuWLVtlXqOKejxq4ZW+u7wD5++GtZKCIC4rp163TPPffIwp8t2dnZ3kQ1y5YtkwW7wGLfZ2Rk6JVXXpGFw08++aTOEcbA/u7fQEC05xftOKwY0AfoA/QB+gB9gD5AH6AP0AfoA4E+cOzUaXWbvV13jflY7SdvVsqJIi8zHMo9pF6reqnV9FYatn6Ycktya2WJA6cOeO9KtGcQA8fz41/LQhEREO2VFrfddltwshkbFezZs6c3WU3gGUT7m5+f740cPvPMM9q0aZPstRdNXQIB0Q2cTf0t+yGAAAIIIIAAAggggEDLF0jLK9XGQ6d0OOeLR9hsApreq3rrtzN/q5c+fkl5ZXm1IA7mHvQmqZm/b36t7/y0wbJQRAREe87wySef1JQpU5SamqrJkyerf//+Onz4sGyGU0u6ts6bN09/+MMfZCOLFhYDzxNaOm9sISA2JsT3CCCAAAIIIIAAAgggUFPAwp+NIN418y69tL7ugHgg94A3kc2CfQtq/txXnyMmIJrahg0b1LlzZ3Xo0MGbwXTVqlWyV1sMGTJEdgtqSUmJ95ziz3/+cz3xxBPq2LGjt7722mvV3pdYXwsQEOuTYTsCCCCAAAIIIIAAAgjUJ2DhzwLi3bPu9m4xrWsE0bvFdHUfERDrU/wS222E0GYmPXDggPeai/Lycu8oR44c8UYLLeDZay7s9lN3tRFH+21jCwGxMSG+RwABBBBAAAEEEEAAgZoC+0/tV8+VPXXP+/fUGxBtH3sVxsJ9C2v+3FefI2oEsbnlCIjNLczxEUAAAQQQQAABBBBoeQIpp1K8gNj6g9YNB8RVffRRyke+BiAgOs1DQHQwKCKAAAIIIIAAAggggEA1gTOV51RcXqGisgqVV3zxJoV9OfvUI66H7pt9X70B0UKkjSASEKuR+vsDAdHf7UPtEEAAAQQQQAABBBAIl0DJmUq9tmq/rh66Sj8eHKdBH+32wqLVxwuIK3vo/jn3a+j6oXXOYmoB0WY6XZSyKFyX0KTzMoLoMBEQHQyKCCCAAAIIIIAAAgggEBSYsTlV1wxbre/ELAuur67c732/N2eveqzsoT/M+YMXEHNLc4O/CxQsRHoBcT8BMWDi+78ERN83ERVEAAEEEEAAAQQQQCAsAuMTDusnL64MhkMLin3m7fDqsjd7r3eL6QNzHtDQhKFqKCAu3r84LPVv6kkZQXSkCIgOBkUEEEAAAQQQQAABBBAICuzJLFTnGYn60aA4/c+A5Wo74VNtO5bnfb8ne48XENt82KbeEUQbZbQRxCX7lwSP6ccCAdFpFQKig0ERAQQQQAABBBBAAAEEqgnsTC/QB1tSNePTY8FwaDtYQOwe111t57bVkIQhdY4gEhCrUUbGBwJiZLQTtUQAAQQQQAABBBBAwE8Cu7N3ewGx3dx29QZEC5G9VvXS0gNL/VT1WnVhBNEhISA6GBQRQAABBBBAAAEEEECgSQK7sy4ExIfmPURAdMS+4pQjskhAjMhmo9IIIIAAAggggAACCIRVYFfWLm8E8eF5D9cbEG2U0UYQlx1YFta6NnZyRhAdIQKig0ERAQQQQAABBBBAAAEEqgmcqzqv8opzqjhXVW37zqyd6hbXTe3nt280IC4/uLzab/32gYDotAgB0cGgiAACCCCAAAIIIIAAAkEBC4UJ+7P14qI9mrbpmMrOngt+ZwHRJql5ZP4jik2I1anSU8HvAgUbZbQRRAJiQCQC/hIQI6CRqCICCCCAAAIIIIAAAmEQ2JFWoN+P/URXxCzz3oU4PzE9WIsdJ3eo24puenTBow0GxJ4re2rFwRXB3/mxwAii0yoERAeDIgIIIIAAAggggAACCAQFNh46pTteX+8FRAuJExIOB7/zAmJcNz224DHFrqt7BNFGGQmIQbLIKBAQI6OdqCUCCCCAAAIIIIAAAqEWOHX6jMasOaB2Ez/VczMTdTjndLAKySeTvWcQH1/4uF5c92Kdt5haQLRbTOMOxQV/58cCI4hOqxAQHQyKCCCAAAIIIIAAAgggUE0gr+Ss9mQUKi2vtNp2LyCu6KYnFj6hFxPqDog2ymgjiATEanT+/kBA9Hf7UDsEEEAAAQQQQAABBPwosP3EdnVd0VVPfvRkvSOIgYC48tBKP15CsE6MIAYpJAKig0ERAQQQQAABBBBAAAEEmiQQCIhPffRUvQHRRhltBHHlYQJik1D9sBMB0Q+tQB0QQAABBBBAAAEEEPCfwMGsYk36+IiW7TyhsoovXnFhNU06keSNIHZY1KFWQCw+U6yxW8ZqYPxALyCuOrzKfxfn1IgRxBoYycnJ3kiis5kiAggggAACCCCAAAIIRLHAsVMl+uN7W4OvuJi5ObWahhsQB68brJySnOD3xwuP6+sjvq6fTfiZFxBXH14d/M6PBQKi0yqMIDoYFBFAAAEEEEAAAQQQQMATSEzN131/3ugFxP+KWabYxXuqySSeSPRGEJ9e/LTqCojfGvktXTXhKvVY2UMExGp0/v5AQPR3+1A7BBBAAAEEEEAAAQTCIZBVVK4hi/foN6PWqdXr67V6b1a1aiRmfh4Ql9QOiGmFafqHUf+gq8ZfpR5xPbTm8Jpqv/XbB0YQnRYhIDoYFBFAAAEEEEAAAQQQQCAocKKwTGv2ZSkpNV9nK6uC262wLXObXljxgjot6VRrBNEC4j+9+k+6cvyV3gjimiMExGp4fv5AQPRz61A3BBBAAAEEEEAAAQT8KRAIiJ2XdtagtYOqPYNoAfFfXv2XYECMPxLvz4v4vFaMIDrNQ0B0MCgigAACCCCAAAIIINACBXZnFGrgwl3qNXfHl1pHr9qvorKKajJbM7d6I4jPLn22VkBML0rXv43+twsBMa6H1h5dW+23fvtAQHRahIDoYFBEAAEEEEAAAQQQQKCFCexML9Adb3ys7/Zbpu/EfLn1R4PjvGDp0mzN2KouK7rouWXP1RkQ/+P1/9BP3/6pusd1JyC6cH4vExD93kLUDwEEEEAAAQQQQACBugXmJabr3nGf6Hdv1r/aJDNfNhi6v7vyxeovu/8s4zO9sPwFPb/s+ToD4n++8Z/6yds/8QLiuqPr6r4An2xlBNFpCAKig0ERAQQQQAABBBBAAIEIEZiflK7rXlp9WcKfGwTrK1sIdRcLiF2Wd9Gflv9JA9cOrPYMYkZRhr79xrf147d/rG5x3ZRwLMH9qe/KBESnSQiIDgZFBBBAAAEEEEAAAQR8LnCu6rxKzlSqx5xkfa//8osOiP8zYIWujF15UWubCZuUU3ymmsyWjC3eLaZ2m6kFxOyS7OD3FhCvGHOFfvjWD70QSUAM0vi/QED0fxtRQwQQQAABBBBAAAEETMBeNfHJwRy1fmvDRT9TeEXMMv1q5Fq9u/HoZcHckr7FC3/2qouB8TUCYnGGvjv2u/reuO/JZjldf2z9ZTlncx2EEURHloDoYFBEAAEEEEAAAQQQQMDHAgezivXYO1tqjRr+V79luumVtXpo0qf1ro9N2aKpGy5PODSizembvYDYdUXXWgExszhT/zPuf/Svr/2r2s9vr01pm3ysKhEQneYhIDoYFBFAAAEEEEAAAQQQ8LHA2pRs3fJq7Ulnrn9ptVbuORnSmltAtOcP7RnDAWsHVLvF9ETxCd009Sa1+bCNJmybILvl1M8LAdFpHQKig0ERAQQQQAABBBBAAAGfCthzh2PjD+r7A1dUG0G8YUS8Zm0+FrJaV52vkgXASYmT1GFRB3Vf2b3WCKJ9/+DcB2W3oUbCQkB0WomA6GBQRAABBBBAAAEEEEDApwJHT5Wow3tbq4XDq4eu0rqULyaHCUXVSytKNXHbRN0+/Xb1W9NPQxOGakB87RHEth+21Wfpn4WiSpd8DgKiQ0hAdDAoIoAAAggggAACCCDgU4ENB3N0zdBV1QLiayv3h7y2RWeKFJsQK3v2MK0wTZMTJ9cKiPYMot1eujVja8jr92VOSEB01AiIDgZFBBBAAAEEEEAAAQR8KJCaW6JnZmyTzUQaeE/hd/st0/6TRSGvrQXEoeuHasQnI7xzv5f8nvrH91f26S9GMi0gPvDhA9qWuS3k9fsyJyQgOmoERAeDIgIIIIAAAggggAACPhRITM3XlUNWBsOhhcRWo9cru6g85LUtLC9U7LpYjdww0jv3tORpF0YQawbEOQ8oMTMx5PX7MickIDpqBEQHgyICCCCAAAIIIIAAAj4UOJR9Wu0nb9Z3+y33Vpu1dPvx/C9qerZE+v+Dm8oLmnf94GEVxn5Lg2P/Sq/G/rUU+w1Ni/0b9R/yVWUteEYqvjCTqo0g3j/7fiWdSPqijj4uERCdxiEgOhgUEUAAAQQQQAABBBDwiUBaXqn2ZhYG14XbM3TXmx97QXFPZuEXtcxPld75rRT7TS+wWWhrzrUg9usaGPtXev3zgDjdAmLsXykr9mvSws5evQIBMflE8hf19HGJgOg0DgHRwaCIAAIIIIAAAggggIAPBPadKNID4zdVu6XUbiv97/7L9eS7n2nbsTydray6UNP37m7WQFgzbFpAtEA4xgmI/QIB8d3feXWy9x7eN/s+7Ti5wweajVeBgOgYERAdDIoIIIAAAggggAACCPhAoPucZC8MBiakqfl34MJdygo8f/j2DSEPiDGxf6Wx1QLiXytr7NVS0nRPzwJi6w9aa2fWTh9oNl4FAqJjREB0MCgigAACCCCAAAIIIOADgS4fJOm7/ZfXGkEMBMW+83bqRGHZhZruWShZOGvmW0sDx88f9o/q++b39edZraWEEZo++0H1e/d/lbXrQ6niwqQ5FhDv/eBe7cra5QPNxqtAQHSMCIgOBkUEEEAAAQQQQAABBHwgsDApXT9/eU2tgGi3mNpkNZsOn9KZynNf1PTwOin5fSl5VrOv+Ynvqveijhq/dbx3/hk7Zqjfmn7KOp0VrI8FxHvev0e7s3YHt/m5QEB0WoeA6GBQRAABBBBAAAEEEEAgzAI2Y2nnGYn6wcAVXkC8Mnalpm06ps1HcrXlSK6Onir54vnDMNQ1ryxPPVf21MRtE72z1xUQ04vS9fv3f6892XvCUMOLPyUB0TEjIDoYFBFAAAEEEEAAAQQQCLPAgqR03TgiPjh6aAHxg8+Oh7lWX5zeAmKPuB6akjjF2zhz58xaI4gWEO9+/27tzdn7xQ99XCIgOo1DQHQwKCKAAAIIIIAAAgggEGaBpNR83f76+mBAvGbYam/kMMzVCp7eAmK3uG6aun2qt80CYsyaGJ08feEdiLbRC4iz7ta+nH3B3/m5EFEB8fjx4+rcubNuueUWdenSRdu3b1dV1edT2jrK58+f14kTJzR06FDNnz/f+abhIgGxYR++RQABBBBAAAEEEEAglALlFedkk9R8r/9yXRkbp/h9XzzbF8p61Heu3NJcdV3RVdOSp3m71BcQ75p5l1JOpdR3GF9tj5iAaEGwe/fuGjZsmPbs2aPhw4drwIABSk9PrwZqF2RB8tVXX/WC5Lx586p939AHAmJDOnyHAAIIIIAAAggggEBoBYYt3asfDY4LjiA+9e5noa1AHWc7e+6sThSfkE0+Y3+7LO8ie/bQFi8grq49gmgB8cCpA3UczX+bIiYgZmVl6dZbb/XCnzHu3LlTvXr10ubNm2UjhoGlqKjIC49PPfWU2rVrJwJiQIa/CCCAAAIIIIAAAghElsAL9oqLfsuCAfHecRvCfgHbT2zXM0ue0aPzH9XoTaPV9sO2+mDXB169Zu2apb6r+1a7xfRI/hHdOu1WHc47HPa6N6UCERMQN23apLvuuktWYVtOnjypnj17Ki4urtptpqdPn9aCBQu0ceNGxcTEfKmAWFlZ6R3TRi1ZMaAP0AfoA/QB+gB9gD5AH6APhL4PZBaU6o/vfhZ8B6LNZPrexqNh/+/zWTtn6X/f+1/1WdVH982+T88tfU5b0rZ49bIRxD6r+3gji4E+k5SZpF9O+aVyTueEve6BOjX0t6KiQrt27QrmrqaEyvr2+Up9X1yO7UuXLtWDDz4YPFRBQYH69u3rPWNoga7mkpqa+qUDYlpamjIyMlgxoA/QB+gD9AH6AH2APkAfoA+EqQ+8E79b17+0Kjh6+Kvhq3zRFm8mvKkHZj6g1LRU7Ti4Q3sO79HxtONe3d5a/5aeW/Ccth/cHqzroqRFumnSTd6jcZGQMSwLRUxAbNu2bTAH5ufnewFx4cKFutwB0W5nzcnJYcWAPkAfoA/QB+gD9AH6AH2APhCmPvDq0mT9aNCF9x9+J2aZXpi11RdtMWb9GD08++E66zJx40R1WdRFe1L3BL9fnLxYN79zc/Cz33OGZaGICIj2rOGdd94ZHOrMzMz0bjFdtWqVN1QbTI6fFy5lBNECpz3XyIoBfYA+QB+gD9AH6AP0AfoAfSD0fSApNU9tJ2zSfznPH46KS/HFf59P3DZRHRd3rLMu7+9837v11CavCfSbtUfW6s4ZdwY/B7b79a9loYgIiIWFhd4kNYcPX3i4MzEx0Zuk5rPPPvOwL2dADDznWPOYfEYAAQQQQAABBBBAAIHmF5i99Xi12UttBPGBtzc2/4mbcIa3t76tTks61bmnTVZjzyC670FcfXi17p51d537+3FjxExSYwnbZi211cLhwIEDNXjwYG+yGnsesaysrJrvpYwgEhCrUfIBAQQQQAABBBBAAIGQCsz+rHZAHLHcHy+aH7dlnJ5f9nydHl5AXHVhkprADnGH4nTvB/cGPvr+b8QERJO0mUu7du3qjSTaBDUpKRdeNtm+fXvNnTu3GrY9XBkbG6vFixdX297QB8NITk4O3sba0L58hwACCCCAAAIIIIAAApdfYPvxfP32jY+Dk9PY6OHvx35y+U/0JY/4+qevq+uKrnX+uq6AuOzAMt0/5/469/fjxogKiM0NSEBsbmGOjwACCCCAAAIIIIBA/QJlFec0c3Oqroj54t2HFhDv+3P4338YqPWrG19Vj5U9Ah+r/Z29e7Z6r+rtveYi8MXilMVq82GbwEff/yUgOk1EQHQwKCKAAAIIIIAAAgggEGKBHWkFumFEfLXRw//uv1xTNxwNcU3qP92IT0Z4E9HUtUddAXHhvoV6aN5Dde3uy20ERKdZCIgOBkUEEEAAAQQQQAABBEIssO1Ynn764spqAfHusZ8op/hMiGtS/+mGrR+m/mv617nDnN1zao0gzt0zV48seKTO/f24kYDotAoB0cGgiAACCCCAAAIIIIBACAX+v/buBDrq6tDjuLX2HJ9dXpfje4fT93xVn8/WaqlW3F7V6tFK1SKiTxGt1arPUpVVDJsZFBQoUEDWQBBkEcIeSMjCDoY1EAKEXdZAAiGGJSF7fu/dv854CZPJZDKJ80++/3OuuTNz/3f+87k3Mr/8t7KKSsVnHNcvo5N8AdHsTZy+4bCKyyoacUsCv1X0imj1Xd7XbyN/AdHsVfzT/D/5bR+JTxIQrVEhIFoYVBFAAAEEEEAAAQQQaESBs8Vl6jlvuy8cmnMPX4jdoM9PnQ9qK7LPZmvEhhGanDFZRaVFQa0TSqPey3rLs8Ljd1UTEDsv6ay9eXt1pviMUyamT9TLC1/22z4SnyQgWqNCQLQwqCKAAAIIIIAAAggg0IgC+YWlen7ihosCYr/4nUEfXmquIPrbj3+rVhNa6UD+l/dOb4jNj1oapf6r+/vtOn5PvO6ceKduj7ld98Te45RfjvmlOiX5v+qp306+4ScJiNYAEBAtDKoIIIAAAggggAACCDSiwPGCC2rZ7+vzD2/xJGtpVq4qKqtq3YryynL9auyvnCDWclxLZZ3KqnWdUBt0S+mmgWsH+l3d7Lk8XHBY+07v8xUTVk8XnfbbPhKfJCBao0JAtDCoIoAAAggggAACCCDQiAJ//njjRXsPW49YI3NV00BLVVWVMk5kaNq2afrJ4J+ouLxYt46/VTtO7gi0Wr1e65zUWeZWF011ISBaI0tAtDCoIoAAAggggAACCCDQSAJFpeW6oU/iRQGxfcx67c05F3ALjp09poc+eUhmr6H3PL/bYm7T9tztAderz4tvJL6hYeuG1aeLiF6XgGgNDwHRwqCKAAIIIIAAAggggEAjCJw4c+GScw9v6L1E/RdnyZyXWNNi9h7GbonV/ZPv15YTW3zNfhPzG2XmZvoeh7vy+uLXNXLDyHB3GzH9ERCtoSAgWhhUEUAAAQQQQAABBBBoBIE3P9160Z5Dc/XSp8elKfNY4MNLS8pL1GlJJ72d+rZyz+f6tvT2CbdrW8423+NwV16Jf0VjNo4Jd7cR0x8B0RoKAqKFQRUBBBBAAAEEEEAAgTAJLMzI1qS1B/2WOz9YdlFAvL5XogYn7Q74zmbv4absTWo9rbXm7Zonc5Ea73LHhDuc8xK9j8P9888L/qzxm8eHu9uI6Y+AaA0FAdHCoIoAAggggAACCCCAQBgEZm06qlYDll4UAs1eQn/lZ1EJenTkGm08mB/wnYvKijRo7SA9MfOJS65Yam4zYR9yGrCjEF58Yd4LzqGtIazqilUIiNYwERAtDKoIIIAAAggggAACTU7gYF6hBibuUvfZ2xqt3PZ+qt8w6C8g3vRukgYk1H6LCnMbizafttGQtCHOlUvtgbpr4l1KP55uPxXWevs57TU5Y3JY+4ykzgiI1mgQEC0MqggggAACCCCAAAJNSiB5Z46ejVmvG/ssCTqw+QtxDfnc74as1Kq9p2p1TzuaphcXvCjzs/pyd+zd2py9ufrTYXlcXlGutjPbauq2qWHpLxI7ISBao0JAtDCoIoAAAggggAACCDQZgbQDeWo3Nk3X9vR/aGdDhr5g+zbhMDUrV6XllZe4mz2CKw+u9D2/+vBqdUzoqN15l56reE/sPdqYvdHXNpyViVsmqsXQFlqwa0E4u42ovgiI1nAQEC0MqggggAACCCCAAAIRJdCG9mgSAAAUr0lEQVRnwQ5dF8EBr7YgaC4+02NOaFcXvfGj/9Jl/S6TPD9wygrPVfqr5zv63PNd33Pe1/7bc4U2xtwrHQv/YabvrXpPA9cM1NmSsxE1N8K5MQRES5OAaGFQbZYC5RWVOldcprMXyjQkeY9uik6q8RCUa6MW6edRc3VzVBwFA+YAc4A5wBxgDrhwDtwSFafGKrf2mq3Ok1dKxQV1L/uW6obBV+sKz2V6xfMdpzzm+bZe8lyhY57vXRIQ7/Vcrg2eq6SYB6ScHWH9The9IlpD04bqXMm5sPYbSZ0REK3RICBaGFSbnUBJWYXiNh/Vr/ql1BgKvX8Z/M+oBXq+50Ct63OHSt/9oSqjf+ArVVbdPG8/rqnur53dtqb+A7WxX7Pr1fuyX7Pr/rbJu67dztTtx942/ta329n1mtbx14e3bfX17cc11QP15+3X2yZQH962pk1921Xvw9u3dzu8j0NtV9P22c/7ey/7fb31cLSr3pe9HXY93O1M34H6975fqO3svmuqh8PP7jtQf97P421jr2fXw93O9B2of+/7hdrO7rumuvcz2+/lrx6Odt5+vX0F2iZv2+qf3V7H26a2/qr3UX097+NQ29nbVFPdu432e/mrh6Odt19vX4G2ydu2+me31/G2qfxqT5x3r1sk/6zyfF+tPJc7wXCc50qZEuO5Ums8V6nM8/1LAuJ9nsu1zgTEj26T9qaE9Ttdr2W9NGL9CJ0vPR/WfiOpMwKiNRoERAuDqisEKiqrtPP4GaXuzFFKPcuUtENqGUQ4NCHxoZ7jtKbvPc4XoUj+B4Vt+/IwHBxwYA4wB5gDzAE3z4Hznu/p3z3f0i4/h5P6+1z3e76ttIEtpPi3pIKjYf1O1yO1h0ZvHK3C0sKw9htJnREQrdEgIFoYVF0hkLQjR21Hf6Zra7iXkHePX7h/PtpzlDb0bUVAdNFfX/39A8pzfGFkDjAHmAPMATfMgT2e7+oGz7dUaPYW9vuhNPYeKSmqxvK7Ydfos+SosIdD8+WwS1IXjd88XuY+jE11ISBaI0tAtDCCrJ44c0Fmz9P7i7L03qKdlEY2uHfwiloPB61POLyhd6LenLFFk9YevKjMXrtTR1JGS6Pv+PJ/1ASlSw5vccM/uGwjXwyZA8wB5gBzwA1zYJPnKt3tufzLf2vH/VY6uDrgN9UHpjygNYfXBGwT6otvJr6p2C2xulB2IdQuIn49AqI1RJEcEC+UVWjl7pPqM397o93UNJgbqP5lyibd3j/4m5/WJ6ywbuNdlvoX7yYpOn6HFmzNlrmhrt/lQoH0+Uop41MpYzoFA+YAc4A5wBxgDjAHwj4HqrZO18CPH9BdI66TMmbUGg7Nd5YHP3lQ5jYYDbH8dfFfNSVjCgExSNz/v+6su5dIDYjmapJPj0vTvYOX6We94tSi5zhd3StaP+r9qlpEjdc1UYsbdC8SwazxglkkWN/0bpIGJGQpv7DU3b/QbD0CCCCAAAIIuF6gpLxEv5/6e3lWeoL+LA9NfUirDq0Kun1dGr4S/4qmZ05XcXlxXVZzVVv2IFrDFYkBsX9Clv4jeqiu6nu/roj+qb4dfbWuePcaXdn3N7oi+l/1k95ddU1UfMQExCd6Dld6n1t1+N3rdMQqR626eb76Y29b+3lTr/7Y287+abep3rf9ml0PRzt7GwL1Z7cz22Bvh12vSzt/6x2Nvk7HwlCyPdfr/MCfS8NvDqLcIs1+SSrKt36TqCKAAAIIIIAAAuERyL+Qr7tj79aOk8HfruLhqQ9r5cGV4dmAar28OP9FzdoxSya4NtWFgGiNbCQGRHOO2b/06q8f9X5dLaLG6N+iZumaqEVOIPxp3/sVG32VSqK/X+Nltb2XRPZe0tjvZY6/ui2B/Zpd967r72f1duaxG45lZxvDPE7TnrJ+k6gigAACCCCAAALhETDB8Nbxt+pQwaGgO3xk2iNacXBF0O3r0vC5uc9p/q75Kq1oukdaERCtGRGJAdHsQbyx7xLfHsJreybo1++laEi/Tvqf6Ks12XOl3/u/EIDCHIC4CEvg4D/kBus3iSoCCCCAAAIIIBAegTlZc3Tfx/fp2NljQXdoAuKyz5cF3T7YhlVVVXoq7ikt2rNIZRVlwa7munYERGvIIjEgms17b1GWHh2xRn8YsUbtY9YreWeOlNJHbw74Z00iIAYOLgS7hvcZ0EJa1Nn6TaKKAAIIIIAAAgjUX6CiskIT0ifIXDn0dNHpoDtsPa21ln6+NOj2wTasrKrUEzOfUNL+JJVXlge7muvaERCtIYvUgGht4tfVfSl6a+ytivX8U2TuQRz2C2nmc5Qmb9BBWva+VHz267lJDQEEEEAAAQQQCIPAoS8OyVwUJmpplM4Unwm6x0enP6rUA6lBtw+2odlr+MdP/+gcvmrCa1NdCIjWyLoqIErqHP+qJnzyqMoSe9R4o9BANxFtuNd6SZlxlixVBBBAAAEEEEAAAQTqJrBw90I9OetJxe+Jr9MhnY/NeEwpB1Lq9mZBtC4qK5IJn2lH02T2JjbVhYBojazbAmKXpC6KSY+p0y+M9XGpIoAAAggggAACCCAQkQIFxQUasHqAOi3ppMMFh+u0jY/PeFzJ+5PrtE4wjc1eTHN+4+bjm2XOR2yqCwHRGlm3BcRuyd00fvN4AqI1hlQRQAABBBBAAAEE3C+wKXuT2s9tr9EbR8uExbos5jDQJfuW1GWVoNqa8yBNQMzIySAgBiUmXRZku4ht5raA2D2lu8ZuGtukL7MbsZOFDUMAAQQQQAABBBBoEAFzARhz9dLXF7+ubTnb6nw4Z5uZbZS4LzHs25Z7Ptc5xDQzNzPsfUdSh+xBtEbDbQGxR2oPjdk0hoBojSFVBBBAAAEEEEAAAXcLrDu2Ti3HtVTHhI46ce5EnT+MudJowt6EOq9X2wrmVhtm7+T23O21NXX16wREa/jcFhDfSX3H2e3elG/UaQ0PVQQQQAABBBBAAIFmIGD2/r0a/6rMHrtQFnNhm8V7FoeyasB1Dn5xUG1nttXOkzsDtnP7iwREawTdFhB7Lu2pjzZ8xB5EawypIoAAAggggAACCLhXoLC0UKM2jnIOLzVXDQ1laRfXzrmZfSjrBlpn3+l9eiruKWWdygrUzPWvERCtIXRbQOy1rJdGbhhJQLTGkCoCCCCAAAIIIICAewVyzuXI7AR5f9X7IX8IE+LMLTJqWsw9DI+fO67ss9l1KqsOrXL2IO7O211T103ieQKiNYxuC4h9lvfR8PXDCYjWGFJFAAEEEEAAAQQQcK+AOXzzmdnP6JNtn4T8IZ6Oe1oLdi+ocX0TDDvM7aCuyV3rVF6Jf8XZtkMFh2rsuym8QEC0RtFtAbHv8r76x7p/EBCtMaSKAAIIIIAAAggg4E6Bsooyzc2aq9bTWjs3ow/1U7Sd1VZvp7yt2Vmz/RbPSo9un3C7EyJNkKxLWXtkrUI99DXUz9PY6xEQLXG3BcToFdEatm6YSspLrE9BFQEEEEAAAQQQQAAB9wmY+x2+kfiGXpz/osw9B0NdRm8arU5LOilqaZTfYl6btHVSqN03+fUIiNYQuy0g9lvZT0PShhAQrTGkigACCCCAAAIIIOBOAXMbiVYTWmnqtqn1uhG9CZpHzxwNWM6VnHMnUiNsNQHRQnZbQHxv1Xv6+2d/JyBaY0gVAQQQQAABBBBAwH0C5rxAc96hCYgmKLJ8cwIERMvebQGx/+r+GrR2EAHRGkOqCCCAAAIIIIAAAu4TeG3Ra855geY+3+YqoyzfnAAB0bJ3W0AcsHqABq4dSEC0xpBq/QTM/5CPnTmmz458psV7F2vilokaljZMZm/1Gwlv6KUFL8lcGez+yffrxlE3qv3c9jI3jWVBAAEEEEAAAQTqI/Dr8b9W8v7k+nTBumESICBakG4LiB+u+VCmcJEaaxCbYbWqqkqVVZVhKakHUnX9yOt189ib9fDUh/X8vOfVMaGjuqd01wdrPtDwdcM1IX2Cc4Uxc3+iNp+20bacbc1QnY+MAAIIIIAAAnURMN8xxm0ep5j0GL/lx4N+rP2n99elS9o2kAAB0YJ1W0A0ew/NXkQCojWIzaxqwmFuYa6S9icpYV9C/creBJl7a5pDPM6WnK1VcsOxDXo1/lVl5GTU2pYGCCCAAAIIIBAZAua7Q2FpofNvvfn3viFL7vlcHcg/oP35+3XL2FucPzybq5T6Kz1Se3DrtsiYInJVQCwuLlZGRoZWrVqlzMxMnT176ZfYyspK5eTkKC0tTWvXrtWhQ4dUVlYWFLfbAuLgzwbLnIdYXF4c1OcLdyPzP5jSilKdKjylIwVHtO/0Pu3J26OThSfD/Vb0V4NAXlGeei/vrZtG36THZjxW79JmZhtNzpjs7I2s4S19T285vkV/WfgXbTmxxfccFQQQQAABBBCIbAHzfW3MpjEauWFkg5c+y/rorcS31CWpix765CF9ceGLyMZh6xwBVwXE5ORk/e1vf9M777yjLl26aN68eSoqKvINpQks+fn5GjhwoPO6aRMdHa29e/cGdalctwXEoWlD9cycZ5zd9OZeLrWV2K2xuqRsiVVstWLOOwummEMEBn02SOYvPl2TuzrFHI5oHicfSKY0sEHivkR1S+mmu2Lvkjlsw/yhoL7F7I0O9sTwzNxM55zEzcc3+34HqSCAAAIIIIBA5AqcOHdCLy94WY/PeFzmftoNXfqt6ufcssLciN5c34DFHQKuCYilpaXq0KGDZs2a5ewhnDFjhnr27Kk9e/b4pMvLy5WSkqKXX37ZeX7//v3q06ePpkyZclGQ9K1QreK2gJh2JM35xe69rLezF8nsSXKKeVytmEMHfa8v7+0cSmieM3/Z8bZ1Hpvn/JVlX7a1XzPreVZ6nOPJZ+6YqYS9CYrbGacX5r3gnLNmzlujNJyB+Wuc2YO3/ODyoP4AUm261/vhrlO7nBvZbszeWO++6AABBBBAAAEEghfIOpmlsZvGOtcHMNcICLaY7w1tZ7ZV+on04N+Mls1OwDUB0ewFfPDBB1VQUOAMkgl/3bp10+rVq31fjs0hqB988IGGDBniPGf2KMbFxalfv346ebL2wx4jNiCuGSrN7CDNfO6iUjb9aeVPfVJ5uxbJHGoYqJwuOq1QSn5Rvi4qF/KVb5XzpecvOhyxvLLcOdbcHGpKaXgDc58gM8+/icUcotJ+Tntnb/O6o+tEwYA5wBxgDjAHmAMNOwcmbZmkJ2c9qfsm3+dcVdxci8IcURZsMbdHMzsYyiqCO/3qm/h+wXt+8wKuCYjLly9XmzZtZM4xNEteXp7efvttLVq0yDmR0jxnDjft3Lmzpk2b5pNNTU1V9+7ddexY7Tfc9AZEs7fS1COirBoqDfqZ5PmB/9LvR9KoVqo4sjEytjdS3NiOBp8Puedy1XlJZ/1h+h/ULq4dBQPmAHOAOcAcYA408Bx4ZNojzhXsF+xaoB25O2T+Lc4rzAu6nC48rZKykgb/jhAR36H5LhjyOJsstH37dmd9X6gKsXJZiOsFtdrChQv17LPP+tqeOXNGUVFRmjNnju8iNCYgvvbaa85z3obmgjadOnXSkSNHvE/V+NMbEM0FcAxKJJTiYS1VVVM4/Op583ru7G4Rsb2RYMY2NM7c3Za5Tas3rlZKWgoFA+YAc4A5wBxgDjTGHFiXog1bNihjWwbf+yLku3pT/N7pzUImG9V3adCAuGTJErVr1863jeZiND169JAJjt6NNwGxY8eOznmK3oZmz2PXrl119OhR71M1/vQGxIjagzj3f/3vOawWGit2J4X8VwLzuSkYMAeYA8wB5gBzgDnAHGAOMAeYA67Zg2jSuTkH0ZxnaBZz+woT/FasWOE7B8u85vF4NHr0aN85iPPnz1ffvn2dC9vUmAy/esH8QpjbaJifEbXEvyUNv0UafvOlZfSd0u7EiNpcNgYBBBBAAAEEEEAAAQTcKWCykMle4chEDboHsaSkxDkH0ewRNPc/TEhIcG53sWPHDucQU/MBzP0Oza0vzF5Ecy/EU6dO6cMPP9S4ceN07ty5WkfI9BGRAbHWLacBAggggAACCCCAAAIIIFB/AdcERPNRY2JinPsgTpgwwbnwjHlsrmq6bNkyHThwwNlrmJ2d7bQxVzMdOnSoc9Ga9PR038VtApEREAPp8BoCCCCAAAIIIIAAAgg0dQFXBURzYRpzH8Rhw4Y5ewrNXkKzTJw4USYEmsXcC9HsEh0zZoxGjRql9evX+w5LdRoE+A8BMQAOLyGAAAIIIIAAAggggECTF3BVQGzo0SAgNrQw/SOAAAIIIIAAAggggEAkCxAQrdEhIFoYVBFAAAEEEEAAAQQQQKDZCRAQrSEnIFoYVBFAAAEEEEAAAQQQQKDZCRAQrSEnIFoYVBFAAAEEEEAAAQQQQKDZCRAQrSEnIFoYVBFAAAEEEEAAAQQQQKDZCRAQrSEnIFoYVBFAAAEEEEAAAQQQQKDZCRAQrSEnIFoYVBFAAAEEEEAAAQQQQKDZCRAQrSEnIFoYVBFAAAEEEEAAAQQQQKDZCRAQrSEnIFoYVBFAAAEEEEAAAQQQQKDZCRAQrSEnIFoYVBFAAAEEEEAAAQQQQKDZCRAQrSEnIFoYVBFAAAEEEEAAAQQQQKDZCRAQrSEnIFoYVBFAAAEEEEAAAQQQQKDZCRAQrSEvLy/X1q1bVVpaKgNDwYA5wBxgDjAHmAPMAeYAc4A5wBxoTnPAZKHMzEwnC1lRKaTqZSGtFUErlZWVOQExPT1dFAyYA8wB5gBzgDnAHGAOMAeYA8yB5jgHTEA02ai+i+sDYmVlpbP30OxJbE5/JeCz8lcx5gBzgDnAHGAOMAeYA8wB5gBzwMwBk4VMODTZqL6L6wNifQFYHwEEEEAAAQQQQAABBBBA4EsBAiIzAQEEEEAAAQQQQAABBBBAwBEgIDIREEAAAQQQQAABBBBAAAEEHAECIhMBAQQQQAABBBBAAAEEEEDAESAgMhEQQAABBBBAAAEEEEAAAQQcAQIiEwEBBBBAAAEEEEAAAQQQQMARICAyERBAAAEEEEAAAQQQQAABBBwBAiITAQEEEEAAAQQQQAABBBBAwBH4P1kcvkhft5nPAAAAAElFTkSuQmCC;" vertex="1" parent="Oyaj-UeupnfmVhnfqXTl-20">
          <mxGeometry width="778" height="378.67" as="geometry" />
        </mxCell>
        <mxCell id="Oyaj-UeupnfmVhnfqXTl-18" value="Volatile prediction interval" style="text;html=1;align=center;verticalAlign=middle;whiteSpace=wrap;rounded=0;" vertex="1" parent="Oyaj-UeupnfmVhnfqXTl-20">
          <mxGeometry x="614" y="227" width="149" height="30" as="geometry" />
        </mxCell>
        <mxCell id="Oyaj-UeupnfmVhnfqXTl-19" value="Efficient interval but low level of classification" style="text;html=1;align=center;verticalAlign=middle;whiteSpace=wrap;rounded=0;" vertex="1" parent="Oyaj-UeupnfmVhnfqXTl-20">
          <mxGeometry x="282" y="290" width="249" height="30" as="geometry" />
        </mxCell>
      </root>
    </mxGraphModel>
  </diagram>
</mxfile>
